<svg width="311" height="954" viewBox="0 0 311 954" fill="none" xmlns="http://www.w3.org/2000/svg">
<path d="M601.956 28.3439L998.556 756.464C1010.97 779.259 1002.56 807.804 979.764 820.22L486.908 1088.67C464.112 1101.09 435.568 1092.68 423.152 1069.88L26.5514 341.761C14.1351 318.966 22.5488 290.422 45.344 278.005L538.2 9.55127C560.995 -2.86505 589.54 5.54869 601.956 28.3439Z" stroke="#F0DB4F" stroke-width="6"/>
<path d="M655.886 42.9321L1052.49 771.052C1064.9 793.847 1056.49 822.392 1033.69 834.808L540.838 1103.26C518.042 1115.68 489.498 1107.26 477.082 1084.47L80.4813 356.35C68.065 333.554 76.4788 305.01 99.274 292.594L592.13 24.1395C614.925 11.7231 643.47 20.1369 655.886 42.9321Z" stroke="#F0DB4F" stroke-width="6"/>
<path d="M713.925 63.3759L1110.53 791.496C1122.94 814.291 1114.53 842.836 1091.73 855.252L598.877 1123.71C576.081 1136.12 547.537 1127.71 535.121 1104.91L138.52 376.793C126.104 353.998 134.518 325.454 157.313 313.037L650.169 44.5833C672.964 32.1669 701.509 40.5807 713.925 63.3759Z" stroke="#F0DB4F" stroke-width="6"/>
</svg>
